
    <svg xmlns="http://www.w3.org/2000/svg" viewBox="0 0 200 156">
      <style>
        text {
  font-family: sans-serif;
  font-weight: 400;
  font-style: normal;
}
        text {
          font-size: 6px;
        }
      </style>
      <text y="7" x="3">Y.M.C.K</text><rect width="38" height="10" y="10" x="0" fill="#eee9e5" />
<rect width="38" height="10" y="10" x="40" fill="#383736" />
<rect width="38" height="10" y="10" x="80" fill="#d85794" />
<rect width="38" height="10" y="10" x="120" fill="#45abcb" />
<rect width="38" height="10" y="10" x="160" fill="#ebc92a" />
<text y="33" x="3">White Tomato</text><rect width="31.333333333333336" height="10" y="36" x="0" fill="#29181e" />
<rect width="31.333333333333336" height="10" y="36" x="33.333333333333336" fill="#81695d" />
<rect width="31.333333333333336" height="10" y="36" x="66.66666666666667" fill="#ce7f50" />
<rect width="31.333333333333336" height="10" y="36" x="100" fill="#ebe1e2" />
<rect width="31.333333333333336" height="10" y="36" x="133.33333333333334" fill="#d74f32" />
<rect width="31.333333333333336" height="10" y="36" x="166.66666666666669" fill="#3b2a54" />
<text y="59" x="3">Puffy Desert</text><rect width="38" height="10" y="62" x="0" fill="#ebe7e0" />
<rect width="38" height="10" y="62" x="40" fill="#262626" />
<rect width="38" height="10" y="62" x="80" fill="#bc594e" />
<rect width="38" height="10" y="62" x="120" fill="#bca357" />
<rect width="38" height="10" y="62" x="160" fill="#516b9e" />
<text y="85" x="3">Spiced King</text><rect width="31.333333333333336" height="10" y="88" x="0" fill="#383b34" />
<rect width="31.333333333333336" height="10" y="88" x="33.333333333333336" fill="#4d4c32" />
<rect width="31.333333333333336" height="10" y="88" x="66.66666666666667" fill="#7a603c" />
<rect width="31.333333333333336" height="10" y="88" x="100" fill="#c97759" />
<rect width="31.333333333333336" height="10" y="88" x="133.33333333333334" fill="#e59a84" />
<rect width="31.333333333333336" height="10" y="88" x="166.66666666666669" fill="#cdc4b9" />
<text y="111" x="3">Y.M.C.K</text><rect width="38" height="10" y="114" x="0" fill="#eee9e5" />
<rect width="38" height="10" y="114" x="40" fill="#383736" />
<rect width="38" height="10" y="114" x="80" fill="#d85794" />
<rect width="38" height="10" y="114" x="120" fill="#45abcb" />
<rect width="38" height="10" y="114" x="160" fill="#ebc92a" />
<text y="137" x="3">Y.M.C.K</text><rect width="38" height="10" y="140" x="0" fill="#eee9e5" />
<rect width="38" height="10" y="140" x="40" fill="#383736" />
<rect width="38" height="10" y="140" x="80" fill="#d85794" />
<rect width="38" height="10" y="140" x="120" fill="#45abcb" />
<rect width="38" height="10" y="140" x="160" fill="#ebc92a" />
    </svg>
  