
    <svg xmlns="http://www.w3.org/2000/svg" viewBox="0 0 200 234">
      <style>
        text {
          font-family: sans-serif;
          font-size: 6px;
        }
      </style>
      <text y="8.285714285714285" x="3">Twilight Chocolate</text><rect width="26.571428571428573" height="10" y="10" x="0" fill="#1b1b19" />
<rect width="26.571428571428573" height="10" y="10" x="28.571428571428573" fill="#803e23" />
<rect width="26.571428571428573" height="10" y="10" x="57.142857142857146" fill="#ac6633" />
<rect width="26.571428571428573" height="10" y="10" x="85.71428571428572" fill="#ea9e52" />
<rect width="26.571428571428573" height="10" y="10" x="114.28571428571429" fill="#f7eedf" />
<rect width="26.571428571428573" height="10" y="10" x="142.85714285714286" fill="#d7d3c8" />
<rect width="26.571428571428573" height="10" y="10" x="171.42857142857144" fill="#aacfc8" />
<text y="34.285714285714285" x="3">Gentle Sting</text><rect width="48" height="10" y="36" x="0" fill="#1b1b19" />
<rect width="48" height="10" y="36" x="50" fill="#da704a" />
<rect width="48" height="10" y="36" x="100" fill="#c8afbc" />
<rect width="48" height="10" y="36" x="150" fill="#f6cab4" />
<text y="60.285714285714285" x="3">Yemen</text><rect width="64.66666666666667" height="10" y="62" x="0" fill="#ff0000" />
<rect width="64.66666666666667" height="10" y="62" x="66.66666666666667" fill="#ffffff" />
<rect width="64.66666666666667" height="10" y="62" x="133.33333333333334" fill="#202123" />
<text y="86.28571428571429" x="3">German Hop</text><rect width="64.66666666666667" height="10" y="88" x="0" fill="#eac328" />
<rect width="64.66666666666667" height="10" y="88" x="66.66666666666667" fill="#ce6d54" />
<rect width="64.66666666666667" height="10" y="88" x="133.33333333333334" fill="#354046" />
<text y="112.28571428571429" x="3">Chaotic Eight Ball</text><rect width="64.66666666666667" height="10" y="114" x="0" fill="#b03b5f" />
<rect width="64.66666666666667" height="10" y="114" x="66.66666666666667" fill="#e1e6eb" />
<rect width="64.66666666666667" height="10" y="114" x="133.33333333333334" fill="#07080b" />
<text y="138.28571428571428" x="3">Shrimp Latte</text><rect width="64.66666666666667" height="10" y="140" x="0" fill="#e39e84" />
<rect width="64.66666666666667" height="10" y="140" x="66.66666666666667" fill="#73bede" />
<rect width="64.66666666666667" height="10" y="140" x="133.33333333333334" fill="#fdf8e7" />
<text y="164.28571428571428" x="3">Doctor Pond</text><rect width="64.66666666666667" height="10" y="166" x="0" fill="#ffffff" />
<rect width="64.66666666666667" height="10" y="166" x="66.66666666666667" fill="#e17887" />
<rect width="64.66666666666667" height="10" y="166" x="133.33333333333334" fill="#90c6e6" />
<text y="190.28571428571428" x="3">Voracious Blonde</text><rect width="64.66666666666667" height="10" y="192" x="0" fill="#ffeeee" />
<rect width="64.66666666666667" height="10" y="192" x="66.66666666666667" fill="#202125" />
<rect width="64.66666666666667" height="10" y="192" x="133.33333333333334" fill="#ffdddd" />
<text y="216.28571428571428" x="3">Diamond Passage</text><rect width="64.66666666666667" height="10" y="218" x="0" fill="#ffd919" />
<rect width="64.66666666666667" height="10" y="218" x="66.66666666666667" fill="#262104" />
<rect width="64.66666666666667" height="10" y="218" x="133.33333333333334" fill="#fffbe6" />
    </svg>
  